<svg width="32" height="32" viewBox="0 0 32 32" fill="none" xmlns="http://www.w3.org/2000/svg">
<g clip-path="url(#clip0_2_0)">
<path d="M15.4577 27.7249C15.4577 29.1926 14.2679 30.3824 12.8002 30.3824C11.3325 30.3824 10.1427 29.1926 10.1427 27.7249C10.1427 26.2572 11.3325 25.0674 12.8002 25.0674C14.2679 25.0674 15.4577 26.2572 15.4577 27.7249ZM23.5607 25.0674C22.093 25.0674 20.9031 26.2572 20.9031 27.7249C20.9031 29.1926 22.093 30.3825 23.5607 30.3825C25.0284 30.3825 26.2182 29.1926 26.2182 27.7249C26.2182 26.2572 25.0284 25.0674 23.5607 25.0674ZM31.8098 12.5919L28.5398 22.3111C28.5398 22.3111 28.2691 23.7535 26.89 23.7535C25.5108 23.7535 12.0237 23.7535 10.3778 23.7535C8.7319 23.7535 8.66273 21.9456 8.66273 21.9456C8.66273 21.9456 6.90819 8.92866 6.82125 8.14226C6.7343 7.35587 5.72861 6.773 5.72861 6.773L1.40149 4.75171C-0.967555 3.51285 0.109279 1.15565 1.40149 1.69704C6.88843 4.2854 9.43727 5.55983 9.60128 6.57936C9.76725 7.60087 10.0557 10.0608 10.0557 10.0608V10.0766C10.0893 10.0667 10.113 10.0608 10.113 10.0608C10.113 10.0608 26.9394 10.0608 30.3378 10.0608C32.78 10.0608 31.8098 12.5958 31.8098 12.5919ZM27.0796 18.0037L27.046 18.0057H11.0377L11.3677 20.6217H26.3012L27.0796 18.0037ZM28.6386 12.7282H10.3758L10.7275 15.524C14.2307 15.524 24.4893 15.524 27.8127 15.524L28.6386 12.7282Z" fill="white"/>
</g>
<defs>
<clipPath id="clip0_2_0">
<rect width="32" height="32" fill="white"/>
</clipPath>
</defs>
</svg>
